<svg width="133" height="26" viewBox="0 0 133 26" fill="none" xmlns="http://www.w3.org/2000/svg">
<path d="M11.9999 5.58728C12.0056 5.35631 12.3053 5.27146 12.4335 5.46284C13.9777 7.76973 16.6068 9.28848 19.5914 9.28848C20.7104 9.28848 21.7794 9.07448 22.7598 8.68607C20.8084 4.74069 16.752 2.02277 12.0583 2.00014C5.46988 1.96809 0.0522254 7.31532 0.00037734 13.9041C-0.00999227 15.2249 0.193629 16.4976 0.578247 17.6883C3.41386 17.4536 6.18538 16.2525 8.35451 14.0823C10.7075 11.7292 11.9226 8.67004 11.9999 5.58728Z" fill="url(#paint0_linear_187_4995)"/>
<path d="M11.9426 25.9999C18.5301 26.031 23.9468 20.6866 23.9996 14.0987C24.01 12.7779 23.8064 11.5062 23.4227 10.3155C20.5861 10.5502 17.8155 11.7513 15.6455 13.9215C13.2925 16.2745 12.0783 19.3337 12.001 22.4165C11.9953 22.6475 11.6956 22.7323 11.5674 22.5409C10.0232 20.2341 7.39405 18.7153 4.40948 18.7153C3.29145 18.7153 2.22243 18.9284 1.24203 19.3168C3.19435 23.2603 7.24982 25.9772 11.9426 25.9999Z" fill="url(#paint1_linear_187_4995)"/>
<path d="M109.756 7.27753H110.942C112.679 7.27753 114.087 8.68574 114.087 10.4229V22.7381H109.756V7.27753Z" fill="black"/>
<path d="M33.268 16.6997C33.2906 17.5126 33.5954 18.2014 34.1825 18.7659C34.7923 19.3304 35.8084 19.6127 37.2311 19.6127C38.5408 19.6127 39.478 19.4208 40.0425 19.0369C40.6297 18.653 40.9232 18.1336 40.9232 17.4787C40.9232 17.0497 40.7313 16.7222 40.3474 16.4964C39.9861 16.2706 39.478 16.1012 38.8231 15.9883C38.1682 15.8528 37.1408 15.7061 35.7407 15.548C33.3019 15.2544 31.6534 14.5995 30.7953 13.5834C29.9597 12.5446 29.542 11.359 29.542 10.0267C29.542 9.0331 29.8355 8.12983 30.4227 7.31688C31.0098 6.48135 31.8792 5.81519 33.0309 5.31838C34.1825 4.82158 35.5713 4.57318 37.1972 4.57318C39.478 4.57318 41.2733 5.11515 42.583 6.19908C43.8928 7.26043 44.6041 8.63792 44.717 10.3316H40.449C40.3813 9.65411 40.0877 9.08956 39.5683 8.63792C39.0715 8.18628 38.2473 7.96046 37.0956 7.96046C34.9503 7.96046 33.8777 8.57018 33.8777 9.7896C33.8777 10.1283 33.9567 10.4106 34.1148 10.6364C34.2955 10.8622 34.6681 11.0655 35.2326 11.2461C35.7971 11.4268 36.6327 11.5736 37.7392 11.6865C40.1103 11.9349 41.9507 12.4881 43.2605 13.3462C44.5928 14.1818 45.259 15.4464 45.259 17.14C45.259 19.0143 44.5476 20.4595 43.125 21.4757C41.7249 22.4919 39.7151 23 37.0956 23C34.5664 23 32.6018 22.4467 31.2017 21.3402C29.8242 20.2111 29.0903 18.6643 29 16.6997H33.268Z" fill="black"/>
<path d="M54.4832 4.57318C56.2898 4.57318 57.8705 4.97966 59.2254 5.7926C60.5803 6.60555 61.6191 7.71206 62.3417 9.11214C63.0643 10.5122 63.4257 12.0704 63.4257 13.7866C63.4257 15.5028 63.0643 17.061 62.3417 18.461C61.6191 19.8611 60.5803 20.9676 59.2254 21.7806C57.8705 22.5935 56.2898 23 54.4832 23C52.6767 23 51.0959 22.5935 49.741 21.7806C48.3861 20.9676 47.3473 19.8611 46.6247 18.461C45.9021 17.061 45.5408 15.5028 45.5408 13.7866C45.5408 12.0704 45.9021 10.5122 46.6247 9.11214C47.3473 7.71206 48.3861 6.60555 49.741 5.7926C51.0959 4.97966 52.6767 4.57318 54.4832 4.57318ZM54.4832 19.0708C55.9059 19.0708 57.0237 18.574 57.8366 17.5804C58.6722 16.5642 59.0899 15.2996 59.0899 13.7866C59.0899 12.2736 58.6722 11.0203 57.8366 10.0267C57.0237 9.01052 55.9059 8.50243 54.4832 8.50243C53.0606 8.50243 51.9315 9.01052 51.0959 10.0267C50.283 11.0203 49.8765 12.2736 49.8765 13.7866C49.8765 15.2996 50.283 16.5642 51.0959 17.5804C51.9315 18.574 53.0606 19.0708 54.4832 19.0708Z" fill="black"/>
<path d="M83.8356 4.57318C85.5744 4.57318 86.9858 5.12644 88.0697 6.23295C89.1762 7.33946 89.7295 9.13472 89.7295 11.6187V22.729H85.3938V12.2962C85.3938 10.9413 85.168 9.97025 84.7163 9.38312C84.2873 8.79599 83.5534 8.50243 82.5146 8.50243C81.5436 8.50243 80.7419 8.98794 80.1096 9.95896C79.4773 10.9074 79.1612 12.1607 79.1612 13.7188V22.729H74.8255V12.7027C74.8255 11.2123 74.6561 10.1396 74.3174 9.48474C73.9786 8.82987 73.2899 8.50243 72.2511 8.50243C71.5511 8.50243 70.9188 8.76212 70.3542 9.28151C69.8123 9.77831 69.3832 10.4896 69.0671 11.4155C68.7509 12.3188 68.5928 13.335 68.5928 14.464V22.729H64.2571V4.84416H68.5928V5.86035C68.5928 6.26682 68.5477 6.60555 68.4574 6.87653C68.367 7.14752 68.2202 7.52012 68.017 7.99434C67.9267 8.17499 67.8815 8.32177 67.8815 8.43468C67.8815 8.57018 67.9606 8.67179 68.1186 8.73954L68.2541 8.77341C68.3896 8.77341 68.4912 8.71696 68.559 8.60405C68.6267 8.46856 68.6606 8.38952 68.6606 8.36694C69.1348 7.1701 69.7897 6.24424 70.6252 5.58937C71.4608 4.91191 72.4543 4.57318 73.606 4.57318C74.7351 4.57318 75.6723 4.90062 76.4175 5.55549C77.1627 6.18779 77.6595 7.03461 77.9079 8.09596C77.9756 8.32177 78.145 8.43468 78.416 8.43468C78.6418 8.43468 78.7999 8.33307 78.8902 8.12983C79.387 7.00073 80.0645 6.13133 80.9226 5.52162C81.8033 4.88933 82.7743 4.57318 83.8356 4.57318Z" fill="black"/>
<path d="M101.715 4.57318C103.702 4.57318 105.272 5.21676 106.424 6.50393C107.575 7.7911 108.151 9.67669 108.151 12.1607V22.729H103.815V13.6511C103.815 11.7091 103.556 10.3654 103.036 9.62023C102.517 8.87503 101.67 8.50243 100.496 8.50243C99.6602 8.50243 98.8699 8.79599 98.1247 9.38312C97.4021 9.97025 96.8149 10.7945 96.3633 11.8558C95.9116 12.9172 95.6858 14.114 95.6858 15.4464V22.729H91.3501V4.84416H95.6858V5.96197C95.6858 6.48135 95.6407 6.9217 95.5503 7.28301C95.46 7.64432 95.3245 8.01692 95.1439 8.40081C95.031 8.67179 94.9745 8.85245 94.9745 8.94278C94.9745 9.14601 95.0648 9.25892 95.2455 9.28151H95.3471C95.5052 9.28151 95.6407 9.14601 95.7536 8.87503C96.2504 7.76852 97.0182 6.77491 98.0569 5.89422C99.0957 5.01353 100.315 4.57318 101.715 4.57318Z" fill="black"/>
<path d="M115.21 17.8175C115.21 15.9657 115.797 14.5995 116.972 13.7188C118.169 12.8156 119.749 12.3075 121.714 12.1946L123.441 12.1268C124.977 12.0817 126.072 11.98 126.727 11.822C127.382 11.6639 127.698 11.28 127.676 10.6703C127.653 9.90251 127.393 9.28151 126.896 8.80729C126.4 8.33307 125.463 8.09596 124.085 8.09596C122.685 8.09596 121.691 8.34436 121.104 8.84116C120.517 9.31538 120.156 9.97025 120.02 10.8058H115.752C116.046 8.68308 116.983 7.11364 118.564 6.09746C120.144 5.08127 122.03 4.57318 124.221 4.57318C126.614 4.57318 128.511 5.16031 129.911 6.33457C131.311 7.50883 132.011 9.67669 132.011 12.8382V22.729H127.676V21.4757C127.676 20.7983 127.845 20.1434 128.184 19.5111C128.274 19.2853 128.319 19.1159 128.319 19.003C128.319 18.8675 128.263 18.7772 128.15 18.732L128.014 18.6982C127.879 18.6982 127.777 18.7659 127.709 18.9014C127.642 19.0143 127.608 19.082 127.608 19.1046C126.546 21.7015 124.492 23 121.443 23C120.336 23 119.298 22.7742 118.327 22.3225C117.378 21.8709 116.622 21.2499 116.057 20.4595C115.493 19.6692 115.21 18.7885 115.21 17.8175ZM127.676 13.5156C127.224 14.0124 126.625 14.3624 125.88 14.5657C125.158 14.7463 124.017 14.9157 122.459 15.0738C121.488 15.1867 120.754 15.4464 120.257 15.8528C119.783 16.2367 119.546 16.8126 119.546 17.5804C119.546 18.2352 119.794 18.7659 120.291 19.1724C120.811 19.5788 121.477 19.7821 122.29 19.7821C122.583 19.7821 122.809 19.7708 122.967 19.7482C124.3 19.5676 125.406 18.9917 126.287 18.0207C127.19 17.0497 127.653 15.548 127.676 13.5156Z" fill="black"/>
<path d="M114.343 2.80037C114.137 2.88149 113.913 2.92605 113.678 2.92605C112.676 2.92605 111.863 2.11362 111.863 1.11143C111.863 0.898605 111.9 0.694335 111.967 0.504587C111.953 0.504337 111.939 0.504211 111.924 0.504211C110.587 0.504211 109.502 1.5885 109.502 2.92605C109.502 4.26359 110.587 5.34789 111.924 5.34789C113.262 5.34789 114.346 4.26359 114.346 2.92605C114.346 2.88389 114.345 2.84199 114.343 2.80037Z" fill="black"/>
<defs>
<linearGradient id="paint0_linear_187_4995" x1="22.7598" y1="2" x2="9.5562" y2="20.4678" gradientUnits="userSpaceOnUse">
<stop stop-color="#4B1BF9"/>
<stop offset="1" stop-color="#3ECCEE"/>
</linearGradient>
<linearGradient id="paint1_linear_187_4995" x1="24" y1="10.3155" x2="10.8003" y2="28.7809" gradientUnits="userSpaceOnUse">
<stop stop-color="#F20A49"/>
<stop offset="0.52" stop-color="#C119E7"/>
<stop offset="1" stop-color="#4675F3"/>
</linearGradient>
</defs>
</svg>
